<svg version="1.1" id="Layer_1" xmlns="http://www.w3.org/2000/svg" xmlns:xlink="http://www.w3.org/1999/xlink" x="0px" y="0px"
  width="1500px" height="1000px" viewBox="0 0 5000 1000" enable-background="new 0 0 5000 1000" xml:space="preserve">
  <path id="a" class=path stroke-width="4" stroke-miterlimit="10" d="M104 150Q104 223 137 292T233 409T374 456Q431 456 472 416Q494 435 517 435Q535 435 548 424T562 393Q562 381 524 231T485 57Q485 26 504 26Q537 26 565 138Q568 152 573 157T593 162H597Q623 162 623 145Q622 139 620 129T608 91T585 44T549 6T498 -11Q431 -11 396 41Q334 -11 264 -11Q196 -11 150 29T104 150ZM212 97Q212 59 229 43T269 26Q306 26 339 51T382 97Q384 101 415 224T446 354Q446 372 428 395T374 419Q320 419 282 357Q259 317 236 227T212 97Z" />
</svg>